<svg xmlns="http://www.w3.org/2000/svg" width="860" height="560" viewBox="0 0 860 560" font-family="Segoe UI, Inter, system-ui, sans-serif">
  <defs>
    <linearGradient id="acc" x1="0" y1="0" x2="1" y2="0">
      <stop offset="0" stop-color="#3b82f6"/><stop offset="1" stop-color="#8b5cf6"/>
    </linearGradient>
  </defs>
  <rect width="860" height="560" rx="18" fill="#0a0e1a"/>
  <rect x="1" y="1" width="858" height="558" rx="17" fill="none" stroke="#1e2640"/>

  <!-- window chrome -->
  <g transform="translate(28,26)">
    <circle cx="0" cy="0" r="6" fill="#ef4444"/><circle cx="20" cy="0" r="6" fill="#eab308"/><circle cx="40" cy="0" r="6" fill="#22c55e"/>
    <rect x="92" y="-13" width="640" height="26" rx="13" fill="#11162a"/>
    <text x="412" y="5" fill="#64748b" font-size="13" text-anchor="middle">net-report-20260527.html</text>
  </g>

  <!-- header -->
  <g transform="translate(48,76)">
    <rect width="46" height="46" rx="12" fill="url(#acc)"/>
    <path d="M27 9 L15 28 H24 L21 40 L34 20 H25 Z" fill="#0a0e1a"/>
    <text x="62" y="22" fill="#e5e7eb" font-size="22" font-weight="700">Internet Quality Report</text>
    <text x="62" y="42" fill="#94a3b8" font-size="13">Intel Wi-Fi 6 AX201 &#183; 2026-05-27 00:32</text>
  </g>

  <!-- grade card -->
  <g transform="translate(48,142)">
    <rect width="764" height="118" rx="16" fill="#11162a" stroke="#1e2640"/>
    <text x="28" y="84" fill="#22c55e" font-size="64" font-weight="800">A</text>
    <text x="150" y="48" fill="#94a3b8" font-size="14">Connection quality score: <tspan fill="#e5e7eb" font-weight="700">88/100</tspan></text>
    <text x="150" y="68" fill="#64748b" font-size="12.5">responsiveness — independent of your ISP plan size</text>
    <rect x="150" y="82" width="586" height="10" rx="5" fill="#1e2640"/>
    <rect x="150" y="82" width="516" height="10" rx="5" fill="#22c55e"/>
  </g>

  <!-- table -->
  <g transform="translate(48,282)">
    <rect width="764" height="248" rx="14" fill="#11162a" stroke="#1e2640"/>
    <!-- head -->
    <rect width="764" height="40" rx="14" fill="#0d1224"/>
    <rect y="26" width="764" height="14" fill="#0d1224"/>
    <g fill="#94a3b8" font-size="12" font-weight="700" letter-spacing="1">
      <text x="24" y="26">METRIC</text><text x="320" y="26">BEFORE</text><text x="470" y="26">AFTER</text><text x="640" y="26">CHANGE</text>
    </g>
    <!-- rows -->
    <g font-size="14.5">
      <g transform="translate(0,40)">
        <text x="24" y="26" fill="#cbd5e1">Download</text><text x="320" y="26" fill="#e5e7eb" font-weight="600">240 Mbps</text><text x="470" y="26" fill="#e5e7eb" font-weight="600">355 Mbps</text><text x="640" y="26" fill="#22c55e">+115</text>
      </g>
      <line x1="0" y1="80" x2="764" y2="80" stroke="#1e2640"/>
      <g transform="translate(0,80)">
        <text x="24" y="26" fill="#cbd5e1">Ping (avg)</text><text x="320" y="26" fill="#e5e7eb" font-weight="600">58 ms</text><text x="470" y="26" fill="#e5e7eb" font-weight="600">41 ms</text><text x="640" y="26" fill="#22c55e">-17</text>
      </g>
      <line x1="0" y1="120" x2="764" y2="120" stroke="#1e2640"/>
      <g transform="translate(0,120)">
        <text x="24" y="26" fill="#cbd5e1">Jitter</text><text x="320" y="26" fill="#e5e7eb" font-weight="600">22 ms</text><text x="470" y="26" fill="#e5e7eb" font-weight="600">8 ms</text><text x="640" y="26" fill="#22c55e">-14</text>
      </g>
      <line x1="0" y1="160" x2="764" y2="160" stroke="#1e2640"/>
      <g transform="translate(0,160)">
        <text x="24" y="26" fill="#cbd5e1">Bufferbloat</text><text x="320" y="26" fill="#f97316" font-weight="600">+127 ms (D)</text><text x="470" y="26" fill="#84cc16" font-weight="600">+34 ms (B)</text><text x="640" y="26" fill="#22c55e">&#10003;</text>
      </g>
      <line x1="0" y1="200" x2="764" y2="200" stroke="#1e2640"/>
      <g transform="translate(0,200)">
        <text x="24" y="26" fill="#cbd5e1">Fastest DNS</text><text x="320" y="26" fill="#e5e7eb" font-weight="600">44 ms</text><text x="470" y="26" fill="#e5e7eb" font-weight="600">11 ms</text><text x="640" y="26" fill="#22c55e">-33</text>
      </g>
    </g>
  </g>
</svg>
